<svg width="20" height="20" viewBox="0 0 20 20" fill="none" xmlns="http://www.w3.org/2000/svg"><g clip-path="url(#clip0)"><path d="M9.795 11.982l6.463 6.73a.922.922 0 001.337 0l.566-.59a.998.998 0 00.276-.696.997.997 0 00-.276-.696L11.7 10l6.462-6.73a.997.997 0 00.276-.696.996.996 0 00-.276-.696l-.566-.59a.92.92 0 00-1.337 0l-6.463 6.73-6.462-6.73a.921.921 0 00-1.337 0l-.567.59a.997.997 0 00-.276.696 1 1 0 00.276.696L7.892 10l-6.463 6.73a.998.998 0 00-.276.696 1 1 0 00.276.697l.567.59a.92.92 0 001.337 0l6.462-6.73z" fill="#fff"/></g><defs><clipPath id="clip0"><path fill="#fff" transform="rotate(90 9.699 9.699)" d="M0 0h20v19.205H0z"/></clipPath></defs></svg>