<svg width="40" height="40" viewBox="0 0 40 40" fill="none" xmlns="http://www.w3.org/2000/svg"><g clip-path="url(#clip0)"><path d="M21.983 20l6.73-6.73a.98.98 0 00.287-.697.976.976 0 00-.288-.696l-.59-.59a.976.976 0 00-.696-.287.976.976 0 00-.696.287L20 18.017l-6.73-6.73a.975.975 0 00-.696-.287.976.976 0 00-.696.287l-.59.59a.985.985 0 000 1.392l6.73 6.73-6.73 6.73a.978.978 0 00-.287.697c0 .263.102.51.287.696l.59.59a.976.976 0 00.696.287.976.976 0 00.696-.288l6.73-6.73 6.73 6.73a.977.977 0 00.696.288.978.978 0 00.697-.288l.59-.59a.978.978 0 00.287-.695.979.979 0 00-.288-.696L21.982 20z" fill="#C4C4C4"/></g><defs><clipPath id="clip0"><path fill="#fff" transform="translate(10 10)" d="M0 0h20v20H0z"/></clipPath></defs></svg>