<svg xmlns="http://www.w3.org/2000/svg" viewBox="0 0 1007.3 222.4" preserveAspectRatio="xMinYMid"><path d="M1007.3 60.6c-4.2-5.5-9.9-9.7-19.9-6.8-1.9-10.4-17.3-13.3-22.1-10.8-1.1-9.2-10.1-13.8-21.3-11.5-2.9-5.7-12.7-9-26.1-1.8-4-10.2-10.6-16.1-22-14.5-3.1-5.6-10.8-9.3-16.2-2.3-7.7-10.1-13.6-11.4-21.3-3.8-5.7-7.9-14.7-10.2-17.9.9-9.1-3.7-15.5-.2-17.9 9.4-3.4-1.4-7.2 4.3-7.3 7.7-10-1-16.3 2.1-21.8 12.9-6.5-9.9-10-14.5-21.5-10.1 1.1-9.3-4.6-21-22.4-18.2-2.6-6.1-21.3-20.2-43.7-4.6-11-5.3-22.1 3.5-22.4 13.4-10.1-6.3-22.1-4.6-27.1 6.7-8.9-8.5-25-18-40.9-1.9-3.4-4.5-9.6-7.7-16-1.9-3.4-2.1-7.8-1-9.8 2.4-.7 1.1-1 2.3-1.1 3.5-20.2-.1-24 6.2-30.1 23.8-10.1-4.4-15.4.4-17.7 9.5-8-1.2-14 1.2-15.7 10.7-6.1-7-13.2-5.1-16.7 2.6-6.3-5.4-12.9-2.6-15.6 6.6-6.9-1.7-19 6.2-20.7 17.5-1.7-.2-3.6-.1-5.6.2-2.3-9.1-7.6-13.9-17.7-9.5-6.1-17.6-9.9-23.9-30.1-23.8-.2-6.6-7-8.3-10.9-5.9-5.7-7-12.6-2.6-16 1.9-14.3-14.7-30.3-11.6-40.9 1.9-5.8-14-16-11.9-27.1-6.7-1.7-8.8-8.2-16.8-22.4-13.4-8.4-5.6-22.8-8.8-33.4-2.3-5.4.2-7.6.8-10.2 6.9-15.8-.5-20.5 8.7-22.4 18.2-11.5-4.4-15 .2-21.5 10.1-5.5-10.8-11.8-13.9-21.8-12.9-.1-3.4-3.9-9.1-7.3-7.7-2.4-9.6-8.8-13.1-17.9-9.4-3.2-11.1-16.8-9.2-17.8-.9-7.7-7.6-13.6-6.3-21.3 3.8-5.4-7-13.1-3.3-16.2 2.3-11.4-1.6-18 4.3-22 14.5-13.4-7.2-23.2-3.9-26.1 1.8-11.2-2.3-20.2 2.3-21.3 11.5-4.8-2.5-20.2.4-22.3 10.8-10-2.9-15.7 1.3-19.9 6.8v124.2h1001.3l6-.5V60.6z" fill="#f3f4f4"/></svg>