<svg xmlns="http://www.w3.org/2000/svg" viewBox="0 0 638 548"><path d="M465.2 357.8l-68.7-58.4c-6.4-5.5-16-4.7-21.5 1.7s-4.7 16 1.7 21.5l54.9 46.8-54.9 46.8c-6.4 5.5-7.2 15.1-1.7 21.5 3.1 3.5 7.3 5.3 11.6 5.3 3.5 0 7-1.2 9.9-3.7l68.7-58.4c3.4-2.9 5.3-7.2 5.3-11.6 0-4.4-2-8.6-5.3-11.5z" fill="#083863"/><path d="M592.7 140.8v65.9H51.4L45.5 60.6C43.9 27.6 70.3 0 103.4 0h124.9c20.3 0 39.2 10.7 49.7 28.2l16 26.6C304.5 72.3 323.3 83 343.7 83h190.9c32-.2 58.1 25.8 58.1 57.8z" fill="#c78e1b"/><path d="M607.5 191.5c18.5 0 32.8 16.3 30.2 34.6L600.3 498c-4 28.7-28.5 50-57.4 50H95.7c-29 0-53.4-21.4-57.4-50L.3 226.1c-2.6-18.3 11.7-34.8 30.2-34.8h562l15 .2z" fill="#ffac05"/><path d="M261.2 416.2l-54.9-46.8 54.9-46.8c6.4-5.5 7.2-15.1 1.7-21.5s-15.1-7.2-21.5-1.7l-68.6 58.4c-3.4 2.9-5.3 7.2-5.3 11.6 0 4.4 2 8.7 5.3 11.6l68.6 58.4c2.9 2.4 6.4 3.7 9.9 3.7 4.3 0 8.5-1.8 11.6-5.3 5.4-6.5 4.7-16.1-1.7-21.6zm79.5-162.5c-8.2-1.7-16.3 3.5-18 11.7L280 468.3c-1.7 8.2 3.5 16.3 11.8 18 1.1.2 2.1.3 3.2.3 7 0 13.4-4.9 14.9-12.1l42.7-202.9c1.5-8-3.7-16.1-11.9-17.9zm124.5 104.1l-68.7-58.4c-6.4-5.5-16-4.7-21.5 1.7s-4.7 16 1.7 21.5l54.9 46.8-54.9 46.8c-6.4 5.5-7.2 15.1-1.7 21.5 3.1 3.5 7.3 5.3 11.6 5.3 3.5 0 7-1.2 9.9-3.7l68.7-58.4c3.4-2.9 5.3-7.2 5.3-11.6 0-4.4-2-8.6-5.3-11.5z"/></svg>