<svg version="1.1" id="Layer_1" xmlns="http://www.w3.org/2000/svg" x="0" y="0" viewBox="0 0 413.2 238.5" xml:space="preserve"><style>.st6{fill:#f2dad4}.st8{fill:#292b33}.st12{fill:#ffac00}.st14{fill:#2181ff}.st17{fill:#fff}</style><linearGradient id="SVGID_1_" gradientUnits="userSpaceOnUse" x1="443.817" y1="-93.307" x2="125.177" y2="-93.307" gradientTransform="matrix(.87 -.01 -.01 -1 -19.03 122.55)"><stop offset="0" stop-color="#d3d6db"/><stop offset="1" stop-color="#7a869b"/></linearGradient><path d="M60 211.2c-6 1-15.6 2.8-15.7 5.3 0 2.3 7.8 4 10.5 4.7 31.3 7.1 68.6-6.8 110-1.7 21.7 2.6 18.5 7.3 37.7 8.3 26.3 1.4 35.6-7.2 68.5-7 14 .1 14.3 1.6 33.4 2.8 7.5.4 60 3.4 60.9-1.8.2-.9-1.1-3.5-23.9-9.7 0-.1-108.6-29.7-281.4-.9z" opacity=".3" fill="url(#SVGID_1_)"/><linearGradient id="SVGID_2_" gradientUnits="userSpaceOnUse" x1="141.6" y1="29.735" x2="169.44" y2="-7.145" gradientTransform="matrix(1 -.00768 -.00768 -1 -3.189 123.066)"><stop offset="0" stop-color="#d3d6db"/><stop offset="1" stop-color="#7a869b"/></linearGradient><path d="M124.3 128.7s18.5-13 30.8-6.7 66.6 25.1 68.4 27.1-9.4 10.5-9.4 10.5l-73.7-19.2-16.1-11.7z" fill="url(#SVGID_2_)"/><linearGradient id="SVGID_3_" gradientUnits="userSpaceOnUse" x1="2.794" y1="-69.273" x2="65.095" y2="-69.273" gradientTransform="matrix(1 -.00768 -.00768 -1 -3.189 123.066)"><stop offset="0" stop-color="#ffac00"/><stop offset="1" stop-color="#ff5e00"/></linearGradient><path d="M42.4 176.5s-2.8-4.7-6.3-4.2-3.4 2.5-5.4 2.5-10.4.1-13.3-.9-10.4-4.4-13.8-4.3-4.4 4.5-2.9 8.4 6 12.8 14 17.2 21.8 14.6 23.8 16.1 6.9 3.9 11.4 3.4 4.9-2.5 4.9-3.5c.2-1.1.7-2.2 1.5-3 .5-.5 2.9-4 3.4-6.4.2-1.4.9-2.6 2-3.5 1-.7 1.2-2 .5-2.9v-.1c-1-1.5-1.6-.5-2.3-1s-10.6-11.8-10.6-11.8l-6.9-6z" fill="url(#SVGID_3_)"/><linearGradient id="SVGID_4_" gradientUnits="userSpaceOnUse" x1="49.583" y1="-63.442" x2="31.403" y2="-75.912" gradientTransform="matrix(1 -.00768 -.00768 -1 -3.189 123.066)"><stop offset="0" stop-color="#d3d6db"/><stop offset="1" stop-color="#7a869b"/></linearGradient><path d="M46.2 177.3c-2.3-.7-4.6-1.1-7-1.1-3.5 0-6.4 1-6.9 5s4 11.8 9.5 14.7 7.9 3.8 10.9 2.8 6.4-3 6.4-5.5-12.9-15.9-12.9-15.9z" fill="url(#SVGID_4_)"/><path d="M35 177c1.3-.6 2.7-.8 4.2-.8.5 0 1 0 1.5.1l.4-.1s-1.9-3-3.9-2.9-2.5.5-2.5 1c0 .9.1 1.8.3 2.7z" fill="#a05708"/><path class="st6" d="M53.5 175.6s-3.4 1.5-4.9 1.5-3.5 0-3.9 1.5-1.4 10.4 2.1 13.3 6.9 3.9 9.4 3.4 8.8-3.5 8.8-3.5l-11.5-16.2z"/><linearGradient id="SVGID_5_" gradientUnits="userSpaceOnUse" x1="56.874" y1="-45.993" x2="313.414" y2="-45.993" gradientTransform="matrix(1 -.00768 -.00768 -1 -3.189 123.066)"><stop offset="0" stop-color="#d3d6db"/><stop offset="1" stop-color="#7a869b"/></linearGradient><path d="M52.5 174.1c-.2 2.5 6.9 18.2 13 19.6 8.4 1.9 29-8.1 35.4-12.1 6.2-3.9 39.3-16.6 40.3-17.1s2-2 2.5-1 0 5.9 3.5 8.9S174 190 177 192.9s16.4 13.7 20.9 16.1 26.2 5.2 38.5 3.6 20.6-13 20.6-13l-25.5-44.2s-8.7-6.9-12-8.3-8.3.6-8.7 2.1-1.4 3.5-3.4 2-45.6-25.3-59.4-28.6-32 12.1-35.9 14.6-43.7 30.9-46.7 31.4c-3.1.5-12.5 1.1-12.9 5.5z" fill="url(#SVGID_5_)"/><path class="st6" d="M206.8 31.8s1.1 10.4 2.1 11.3 2.5.5 2.5 3.9.6 11.4 1.6 11.8 4.4-1.5 4.9-1.5 5.5 3.9 6.5 5.9c1 2 4.5 7.4 7.5 7.8s6.9-5.5 8.9-4c1.8 1.5 2.8 3.6 3 5.9 0 1.5 23.6-5.6 23.6-14.5 0-2.5-6.5-15.7-8-18.7s-3.6-15.8-4.1-19.2S248.5 7.4 238.6 4s-32.9 16.5-31.8 27.8z"/><path class="st8" d="M236.6.5c6.5 1.6 16.4 11.7 17.9 16.6 1.5 4.9 5.3 17.7 5.1 20.2-.5 5.4-9.8 12.9-11.3 10.4S242.1 37 241.8 34c-.5-4.9-3-9.8-6.5-9.8-1 0-3.9 4.5-4.4 6.9-.6 3 2.5 8.9 4.5 10.3s7.1 4.3 8 7.3c1.5 5.4-1.4 16.8-2.8 18.3s-6.1 4.7-8.9 4c-3.9-1-6.5-6.9-8.9-9.6-1-1.2-3-2.1-4.1-3.5s10.6-7 10.3-10c-1.1-11.8-4.6-26-12-25.1-8.4 1-9.3 8.9-14.7 10-3 .6-15.3 2.6-17.9-12.7-.8-4.9 12.3.4 23.6-7.1 3.1-1.9 14.8-15.8 28.6-12.5z"/><linearGradient id="SVGID_6_" gradientUnits="userSpaceOnUse" x1="233.853" y1="6.924" x2="329.383" y2="-35.966" gradientTransform="matrix(1 -.00768 -.00768 -1 -3.189 123.066)"><stop offset="0" stop-color="#ffac00"/><stop offset="1" stop-color="#ff5e00"/></linearGradient><path d="M241.1 76.5c0-2.5 3.9-5.4 6.4-7.9s19.1-14 19.6-15.9 16.8 5.3 22.9 20 13.3 62.1-3.7 93.8-30.8 40.2-31.3 37.2 0-5.4-5.5-8.4-15.9-15.2-18.4-19.6-14-25.5-13-28 10.6-36.1 15.4-46 9.2-16.8 9.2-19.8-1.5-3.5-1.6-5.4z" fill="url(#SVGID_6_)"/><path fill="#2177d6" d="M162.1 129.4l7.4-7.5 50.4 12.4 8.9 10.3z"/><path d="M188.2 117.3s-4.9 4.5-5.9 8.4l3.4-1 6.4-3 4.4-2.5-2-2-6.3.1z" fill="#c6b3af"/><path class="st6" d="M215 116s-5.1-.4-7.6-1.3c-2.3-1-4.9-1.4-7.4-.9-2.5.5-7.4-1.9-9.9-1.4s-10.9.1-11.3.6c-.7.6-1.1 1.5-1 2.5 0 1.5 2 2 2.5 2s9.9.4 12.4 1.4c0 0-4.4.5-6.9 3s-6.4 6-6.4 6.5 0 2.5.5 2.5h1s.5 1 1 1c.9-.6 2-1.1 3-1.5.5 0-1.5 1-1 2 .5.9 1.4 1.5 2.5 1.5 1 0 6.9-3 8.9-2.5s5.4.9 6.9 1.9 6.4 1.9 7.4 1.4S215 116 215 116z"/><path class="st12" d="M268.7 69.8c-10 1.3-12.7 18.8-11.6 25.7 0 0 9.6 34 6.2 34s-24.7-8.2-28.2-9.1-15.4-6.3-17.3-6.3-6.4 6-7.8 9.9-3.4 13.4-.9 13.3 11.8-.1 13.8 1.4 15.4 12.2 22.8 15.1 34.1 10.1 38.5 8.6 10.3-9 10.3-11.9-.8-39.5-3.8-48.8-2.3-34.5-22-31.9z"/><path d="M164.1 129.3l-38-58.4 10.3-.1c.3 0 .6.2.8.4l33.2 50c.2.4.2.9-.1 1.2l-6.2 6.9z" fill="#549eef"/><path class="st14" d="M162.2 129.3l-36.9-56.7c-.3-.5-.2-1.2.3-1.5.2-.1.4-.2.6-.2l38 58.4c-.3.6-1.1.7-1.6.4-.2-.1-.3-.2-.4-.4z"/><path d="M143.8 98.1l2.4 3.7-3.6-22.6-2.4-3.6zm4.1 6.3l3.9 6.1-3.6-22.9-3.9-5.8z" fill="#77baf7"/><path class="st14" d="M227.3 147L163 133c-.5-.1-.8-.5-.8-1v-2.6l66.1 14.9c.5.1.9.7.7 1.2 0 .1-.1.3-.2.4l-.6.8c-.1.2-.5.4-.9.3z"/><linearGradient id="SVGID_7_" gradientUnits="userSpaceOnUse" x1="364.004" y1="-91.009" x2="276.514" y2="-90.859" gradientTransform="matrix(1 -.00768 -.00768 -1 -3.189 123.066)"><stop offset="0" stop-color="#d3d6db"/><stop offset="1" stop-color="#7a869b"/></linearGradient><path d="M362.4 238.2l-37.3.3c-1.2 0-2.3-.9-2.5-2.2l-6.3-51.7 53.9-.4-5.5 51.8c0 1.3-1.1 2.2-2.3 2.2z" fill="url(#SVGID_7_)"/><ellipse transform="matrix(1 -.00768 .00768 1 -1.411 2.642)" class="st8" cx="343.3" cy="185.1" rx="27" ry="3.1"/><path class="st14" d="M340.1 85.2c-14.7 1.3-9.5 45.4-9.5 45.4 4 38 9 55.1 12.7 56.3s10.6-54 10.5-67.5c.1 0 1-35.6-13.7-34.2z"/><path class="st17" d="M342.7 180.8c-.4 0-.6-.3-.6-.7 4.5-40-1.9-90-1.9-90.6 0-.3.2-.6.6-.7.3 0 .6.2.7.5.1.5 6.5 50.7 1.9 90.8-.2.4-.4.7-.7.7z"/><path class="st12" d="M295.8 64.7c-1.2 6.1 6.2 7.3 7.5 15.9s-2.4 11-1.1 15.9 8.6 6.1 10 18.3-3.6 11.1-2.3 18.4 8.6 7.3 9.9 13.4 1.3 14.7 3.9 22 9.9 18.3 13.6 18.3 13.3-21 10.8-27.1-6.2-7.3-6.2-12.2 4.8-17.2 3.5-25.8-12.3-12.1-13.6-18.3 2.3-22.1-6.4-29.4-28.4-15.6-29.6-9.4z"/><path d="M412.4 77.2c4.4 4.3-9.8 6.2-10.9 14.8s-1.1 12.3-6 17.2-12.2 6.2-10.9 13.6 3.8 14.7.1 18.4-12.2 3.8-14.6 9.9-1.1 13.5-6 19.7-12 18.5-18.2 16.1-2.7-30.6-.3-35.5 4.8-8.6 4.8-12.3-1.3-9.8 1.1-15.9 15.9-8.7 17.1-12.4 2.3-23.3 9.6-28.3 26.8-12.6 34.2-5.3z" fill="#40cd8a"/><path class="st17" d="M347.7 184.8c-.1 0-.2 0-.3-.1-.3-.2-.4-.5-.2-.8 0-.1 4.9-8.3 5.9-12.5.3-1.1.6-2.7.9-4.6 1.3-6.8 3.3-17.1 6.4-20.3 4.5-4.6 11.7-18.7 16.7-36.6 6.1-22.1 27-28.8 27.2-28.8.3-.1.7.1.8.4.1.3-.1.7-.4.8-.2.1-20.4 6.5-26.3 28-5 18.2-12.4 32.5-17 37.2-2.9 2.9-4.9 13.4-6.1 19.7-.4 1.9-.7 3.5-.9 4.6-1 4.3-5.8 12.5-6 12.8-.3.1-.5.2-.7.2zm-10.6-2.7c-.3 0-.6-.3-.6-.6 0-.2-.2-16.1-4.9-20.7s-7.6-19.2-9.1-46.9c-1.4-25.2-19.6-45.8-19.8-46-.2-.3-.2-.6 0-.9.2-.2.6-.2.9 0 .2.2 18.7 21.1 20.1 46.8 1.5 27 4.3 41.7 8.8 46.1 5.1 5 5.3 20.9 5.3 21.6-.1.4-.3.6-.7.6z"/></svg>