<svg width="41" height="41" viewBox="0 0 41 41" fill="none" xmlns="http://www.w3.org/2000/svg"><path d="M19.141 30.828a1.922 1.922 0 002.718 0l7.248-7.248a1.922 1.922 0 00-2.718-2.718l-3.967 3.967V3.844a1.922 1.922 0 10-3.844 0v20.985l-3.967-3.967a1.922 1.922 0 10-2.718 2.718l7.248 7.248z" fill="#fff"/><path d="M37.156 18.578a1.922 1.922 0 00-1.922 1.922v14.734H5.766V20.5a1.922 1.922 0 00-3.844 0v15.375a3.203 3.203 0 003.203 3.203h30.75a3.203 3.203 0 003.203-3.203V20.5a1.922 1.922 0 00-1.922-1.922z" fill="#fff"/></svg>