<svg width="36" height="35" viewBox="0 0 36 35" fill="none" xmlns="http://www.w3.org/2000/svg"><path d="M21.445 17.5c0 1.85-1.542 3.35-3.445 3.35-1.903 0-3.445-1.5-3.445-3.35s1.542-3.35 3.445-3.35c1.903 0 3.445 1.5 3.445 3.35z" fill="#fff"/><path d="M26.057 11.573a3.107 3.107 0 00-.773-1.155 3.21 3.21 0 00-1.188-.752c-.365-.137-.912-.3-1.92-.346-1.09-.048-1.416-.058-4.176-.058-2.76 0-3.087.01-4.177.058-1.008.045-1.555.209-1.919.346a3.204 3.204 0 00-1.188.752 3.106 3.106 0 00-.774 1.155c-.141.354-.31.887-.355 1.866-.05 1.06-.06 1.378-.06 4.061s.01 3.001.06 4.06c.045.98.214 1.512.355 1.867.166.436.43.83.773 1.155.334.334.74.59 1.189.752.364.137.911.301 1.92.346 1.089.048 1.416.058 4.176.058 2.76 0 3.087-.01 4.176-.058 1.008-.045 1.555-.209 1.92-.346a3.377 3.377 0 001.961-1.907c.142-.355.31-.886.356-1.866.05-1.06.06-1.378.06-4.06 0-2.684-.01-3.002-.06-4.062-.046-.98-.214-1.511-.356-1.866zM18 22.66c-2.931 0-5.308-2.31-5.308-5.16S15.07 12.34 18 12.34s5.307 2.31 5.307 5.16-2.376 5.16-5.307 5.16zm5.517-9.318c-.685 0-1.24-.54-1.24-1.206 0-.666.555-1.206 1.24-1.206.685 0 1.24.54 1.24 1.206 0 .666-.555 1.206-1.24 1.206z" fill="#fff"/><path d="M18 0C8.06 0 0 7.836 0 17.5 0 27.163 8.06 35 18 35s18-7.837 18-17.5C36 7.836 27.94 0 18 0zm10.274 21.643c-.05 1.07-.225 1.8-.48 2.44a5.214 5.214 0 01-3.024 2.938c-.657.248-1.408.418-2.508.467-1.103.05-1.455.06-4.262.06-2.807 0-3.159-.01-4.261-.06-1.1-.049-1.852-.218-2.51-.467a5.08 5.08 0 01-1.83-1.159 4.913 4.913 0 01-1.192-1.78c-.255-.639-.43-1.37-.48-2.439-.051-1.072-.063-1.414-.063-4.143s.012-3.071.062-4.143c.05-1.07.225-1.8.48-2.44.26-.67.667-1.277 1.193-1.779a5.079 5.079 0 011.83-1.16c.658-.248 1.41-.417 2.51-.466 1.102-.05 1.454-.06 4.261-.06 2.807 0 3.16.01 4.261.06 1.1.049 1.852.218 2.51.467a5.081 5.081 0 011.83 1.159 4.91 4.91 0 011.192 1.78c.256.639.43 1.37.48 2.439.051 1.072.063 1.414.063 4.143s-.012 3.071-.062 4.143z" fill="#fff"/></svg>