<svg width="40" height="40" viewBox="0 0 40 40" fill="none" xmlns="http://www.w3.org/2000/svg"><ellipse cx="20" cy="19.5" rx="18" ry="17.5" fill="#fff"/><path d="M23.445 19.5c0 1.85-1.542 3.35-3.445 3.35-1.903 0-3.445-1.5-3.445-3.35s1.542-3.35 3.445-3.35c1.903 0 3.445 1.5 3.445 3.35z" fill="#E7A43F"/><path d="M28.058 13.573a3.105 3.105 0 00-.774-1.155 3.21 3.21 0 00-1.188-.752c-.364-.137-.911-.3-1.92-.346-1.09-.048-1.416-.058-4.176-.058-2.76 0-3.087.01-4.177.058-1.007.045-1.555.209-1.919.346a3.204 3.204 0 00-1.188.752 3.108 3.108 0 00-.773 1.155c-.142.354-.31.887-.356 1.866-.05 1.06-.06 1.378-.06 4.061s.01 3.001.06 4.06c.046.98.214 1.512.356 1.867.165.436.43.83.773 1.155.333.334.739.59 1.188.752.364.137.912.301 1.92.346 1.09.048 1.416.058 4.176.058 2.76 0 3.087-.01 4.177-.058 1.007-.045 1.555-.209 1.919-.346a3.376 3.376 0 001.962-1.907c.14-.355.31-.886.355-1.866.05-1.06.06-1.378.06-4.06 0-2.684-.01-3.002-.06-4.062-.045-.98-.214-1.511-.355-1.866zM20 24.66c-2.931 0-5.308-2.31-5.308-5.16S17.07 14.34 20 14.34s5.308 2.31 5.308 5.16S22.93 24.66 20 24.66zm5.517-9.318c-.684 0-1.24-.54-1.24-1.206 0-.666.555-1.206 1.24-1.206.686 0 1.24.54 1.24 1.206 0 .666-.555 1.206-1.24 1.206z" fill="#E7A43F"/><path d="M20 2C10.06 2 2 9.836 2 19.5 2 29.163 10.06 37 20 37s18-7.837 18-17.5C38 9.836 29.94 2 20 2zm10.274 21.643c-.05 1.07-.225 1.8-.48 2.44a5.214 5.214 0 01-3.024 2.938c-.657.248-1.408.418-2.508.467-1.103.05-1.455.06-4.262.06-2.807 0-3.159-.01-4.261-.06-1.1-.049-1.852-.218-2.51-.467a5.08 5.08 0 01-1.83-1.159 4.913 4.913 0 01-1.192-1.78c-.255-.639-.43-1.37-.48-2.439-.051-1.072-.063-1.414-.063-4.143s.012-3.071.062-4.143c.05-1.07.225-1.8.48-2.44.26-.67.667-1.277 1.193-1.779a5.079 5.079 0 011.83-1.16c.658-.248 1.41-.417 2.51-.466 1.102-.05 1.454-.06 4.261-.06 2.807 0 3.16.01 4.261.06 1.1.049 1.852.218 2.51.467a5.081 5.081 0 011.83 1.159 4.91 4.91 0 011.192 1.78c.256.639.43 1.37.48 2.439.051 1.072.063 1.414.063 4.143s-.012 3.071-.062 4.143z" fill="#E7A43F"/></svg>