<svg version="1.1" id="Layer_1" xmlns="http://www.w3.org/2000/svg" x="0" y="0" viewBox="0 0 512 512" xml:space="preserve"><style>.st2{fill:#cad1d8}.st4{fill:#fff}</style><path d="M128 0c-17.6 0-32 14.4-32 32v448c0 17.6 14.4 32 32 32h320c17.6 0 32-14.4 32-32V128L352 0H128z" fill="#e2e5e7"/><path d="M384 128h96L352 0v96c0 17.6 14.4 32 32 32z" fill="#b0b7bd"/><path class="st2" d="M480 224l-96-96h96z"/><path d="M416 416c0 8.8-7.2 16-16 16H48c-8.8 0-16-7.2-16-16V256c0-8.8 7.2-16 16-16h352c8.8 0 16 7.2 16 16v160z" fill="#ba008a"/><path class="st4" d="M95.5 304.7c0-10.8 16.9-10.8 16.9 0v50.5c0 20.1-9.6 32.2-31.7 32.2-10.9 0-20-3-27.9-13.2-6.5-7.8 5.7-19.1 12.4-10.9 5.4 6.7 11.1 8.2 16.8 7.9 7.2-.3 13.4-3.5 13.6-16.1l-.1-50.4zm36.6 11.5c2.9-24.8 40.4-29.3 58.1-15.7 8.7 7-.5 18.2-8.2 12.5-9.5-6-31-8.8-33.6 4.5-3.5 21 52.2 9 51.3 43-.9 32.5-48 33.3-65.6 18.7-4.2-3.4-4.1-9.1-1.8-12.5 3.3-3.3 7-4.5 11.4-.9 10.5 7.2 37.5 12.5 39.4-5.6-1.8-19-55-7.6-51-44z"/><path class="st2" d="M400 432H96v16h304c8.8 0 16-7.2 16-16v-16c0 8.8-7.2 16-16 16z"/><path class="st4" d="M259.6 388.5c-23.7 1-48.2-14.7-48.2-46.1 0-31.5 24.6-46.9 48.2-46.9 22.4 1.1 45.8 16.6 45.8 46.9 0 30.4-23.4 46.1-45.8 46.1zm-1.4-76.3c-14.3 0-29.9 10.1-29.9 30.3 0 20.1 15.6 30.3 29.9 30.3 14.7 0 30.4-10.2 30.4-30.3.1-20.2-15.7-30.3-30.4-30.3zm62.6-6.3c0-4.6 1-9.1 7.7-9.1 4.6 0 5.6 1.2 9.1 4.5l42.3 53v-49.6c0-4.2 3.7-8.8 8.1-8.8 4.6 0 9.1 4.6 9.1 8.8v72c0 5.6-3.5 7.8-6.8 8.8-4.5 0-6.7-1-10.4-4.5l-42.3-53.7v49.4c0 5.6-3.5 8.8-8.1 8.8s-8.7-3.2-8.7-8.8v-70.8z"/></svg>