<svg width="41" height="41" viewBox="0 0 41 41" fill="none" xmlns="http://www.w3.org/2000/svg"><path d="M.25.5h40v40h-40V.5z" fill="#000"/><path d="M20.25 8.8c-4.3 0-7.8 3.446-7.8 7.682 0 5.324 7.808 14.418 7.808 14.418s7.792-9.356 7.792-14.418c0-4.236-3.499-7.682-7.8-7.682zm2.353 9.931a3.344 3.344 0 01-2.353.959c-.852 0-1.705-.32-2.353-.959a3.246 3.246 0 010-4.635 3.331 3.331 0 012.353-.96c.889 0 1.725.34 2.353.96a3.246 3.246 0 010 4.635z" fill="#fff"/><path d="M.25.5v-1h-1v1h1zm40 0h1v-1h-1v1zm0 40v1h1v-1h-1zm-40 0h-1v1h1v-1zm0-39h40v-2h-40v2zm39-1v40h2V.5h-2zm1 39h-40v2h40v-2zm-39 1V.5h-2v40h2z" fill="#000"/></svg>