<svg width="153" height="59" viewBox="0 0 153 59" fill="none" xmlns="http://www.w3.org/2000/svg"><g clip-path="url(#clip0)"><path d="M10.221 11.496c4.884 0 7.796 1.714 9.31 3.112 1.65 1.528 3.338 4.276 3.338 8.734 0 5.068-2.174 9.102-6.145 10.96-1.266.606-3.09 1.142-6.503 1.142H.661a.66.66 0 01-.466-.198.681.681 0 01-.195-.473v-.41a.756.756 0 01.196-.49.734.734 0 01.464-.237l.794-.065c.338-.024.664-.143.94-.344.184-.274.28-.6.275-.932V14.668a1.64 1.64 0 00-.275-.96 1.816 1.816 0 00-.917-.335l-.794-.07a.733.733 0 01-.479-.23.756.756 0 01-.204-.496v-.41a.68.68 0 01.195-.473.66.66 0 01.465-.198h9.561zM7.305 32.737a.681.681 0 00.195.473.66.66 0 00.465.198h.748c.357 0 .954 0 1.316-.046 0 0 3.833-.275 5.626-2.488 1.793-2.212 1.945-5.72 1.945-7.49 0-2.18-.28-5.32-2.004-7.355-1.963-2.33-4.81-2.497-6.25-2.497H7.97a.66.66 0 00-.466.198.68.68 0 00-.194.473l-.005 18.534zM33.1 17.668a.66.66 0 01.465.198.68.68 0 01.195.473v.377a.676.676 0 01-.195.472.655.655 0 01-.466.195h-.825a1.76 1.76 0 00-.817.144c-.124.25-.18.53-.16.81v12.438c-.012.302.043.602.16.88.24.163.529.239.817.214h.825c.175 0 .342.07.466.195a.676.676 0 01.195.471v.238a.681.681 0 01-.195.473.66.66 0 01-.466.198h-8.167a.656.656 0 01-.464-.198.677.677 0 01-.192-.473v-.377a.674.674 0 01.192-.471.655.655 0 01.464-.195h.83a1.71 1.71 0 00.835-.145c.128-.25.183-.53.16-.81V20.337a1.926 1.926 0 00-.16-.88 1.228 1.228 0 00-.812-.214h-.853a.655.655 0 01-.462-.197.676.676 0 01-.194-.47v-.237c0-.177.07-.347.192-.473a.655.655 0 01.464-.198H33.1zm10.606 0a.66.66 0 01.462.2.681.681 0 01.193.471v.238a.737.737 0 01-.194.483.716.716 0 01-.462.23l-.518.041c-.264 0-.524.067-.756.196-.031.262.02.528.147.76l4.09 9.865c.142.34.367.335.504 0l3.967-9.857c.117-.235.167-.5.142-.763a1.571 1.571 0 00-.761-.196l-.62-.042a.716.716 0 01-.461-.23.737.737 0 01-.194-.483v-.237c0-.177.069-.347.192-.473a.655.655 0 01.464-.198h5.814a.655.655 0 01.464.198.676.676 0 01.192.473v.237a.79.79 0 01-.19.498.767.767 0 01-.461.257l-.66.102a1.279 1.279 0 00-.542.247c-.16.123-.288.283-.376.466l-6.09 14.785a1.08 1.08 0 01-.374.436c-.162.109-.349.17-.542.179h-2.151a1.071 1.071 0 01-.541-.18 1.093 1.093 0 01-.376-.435L37.84 20.142a1.318 1.318 0 00-.378-.463 1.293 1.293 0 00-.54-.245l-.697-.103a.772.772 0 01-.459-.258.794.794 0 01-.192-.496v-.238c0-.176.069-.345.19-.471a.656.656 0 01.461-.2h7.48zm20.888 0a.655.655 0 01.464.198.677.677 0 01.191.473v14.44c-.012.302.04.602.156.88.242.164.531.24.821.215h.894c.174.001.34.072.463.196a.676.676 0 01.193.47v.238a.676.676 0 01-.192.472.655.655 0 01-.464.198h-8.254a.656.656 0 01-.448-.209.677.677 0 01-.18-.466v-.377c0-.176.068-.345.19-.47a.65.65 0 01.461-.196h.83c.278.017.556-.032.812-.145.126-.25.181-.53.16-.81V20.337a1.987 1.987 0 00-.16-.88 1.25 1.25 0 00-.817-.214h-.83a.651.651 0 01-.457-.199.672.672 0 01-.19-.467v-.238c0-.176.07-.345.191-.471a.655.655 0 01.461-.2h5.705zm12.546 0a1.441 1.441 0 011.045.545L86.21 29.44c.206.299.38.243.38-.125v-8.902a1.482 1.482 0 00-.197-.848 1.858 1.858 0 00-.844-.233l-.779-.042a.716.716 0 01-.462-.229.737.737 0 01-.194-.483v-.238c0-.177.07-.347.192-.473a.655.655 0 01.464-.198h6.379a.66.66 0 01.465.198.68.68 0 01.195.473v.238a.733.733 0 01-.194.486.71.71 0 01-.466.226l-.67.042c-.302.01-.599.09-.867.233a1.42 1.42 0 00-.21.848v14.361a.677.677 0 01-.192.473.656.656 0 01-.464.198H86.21a1.468 1.468 0 01-1.055-.54l-8.9-12.2c-.216-.298-.39-.238-.39.13v9.838c-.01.32.05.638.174.932.233.192.53.287.83.265h.812a.646.646 0 01.465.192.666.666 0 01.195.47v.237a.681.681 0 01-.195.473.66.66 0 01-.465.198h-6.49a.655.655 0 01-.463-.198.677.677 0 01-.192-.473v-.237a.676.676 0 01.194-.47.655.655 0 01.462-.196h.802c.305.018.607-.076.849-.266.135-.29.201-.61.192-.931V18.338a.681.681 0 01.193-.471.66.66 0 01.463-.2h3.448zm25.849-.247a1.076 1.076 0 01.917.615l6.333 14.972a1.318 1.318 0 00.917.708l.491.065c.178.029.34.12.459.258a.792.792 0 01.192.496v.238a.676.676 0 01-.192.473.655.655 0 01-.464.198h-7.337a.65.65 0 01-.473-.193.678.678 0 01-.196-.478v-.238a.733.733 0 01.193-.483.717.717 0 01.462-.23l.652-.046c.256.01.509-.056.729-.19a1.692 1.692 0 00-.188-.755l-1.248-2.982a1.07 1.07 0 00-.374-.437 1.044 1.044 0 00-.543-.177h-4.604a1.048 1.048 0 00-.543.177c-.162.108-.291.26-.374.437l-1.215 2.972a1.3 1.3 0 00-.151.764c.234.13.498.196.765.191l.652.047c.176.016.34.097.462.229.12.131.19.303.193.483v.238a.676.676 0 01-.192.473.656.656 0 01-.463.198h-5.705a.656.656 0 01-.464-.198.676.676 0 01-.192-.473v-.238a.765.765 0 01.193-.491.744.744 0 01.463-.245l.555-.07a1.21 1.21 0 00.543-.228c.16-.12.288-.279.374-.46l6.2-15.005a1.1 1.1 0 01.376-.434 1.07 1.07 0 01.541-.18h2.256zm-3.985 9.405a.425.425 0 00.19.586c.07.032.147.044.223.034h3.572a.365.365 0 00.214-.03.378.378 0 00.144-.567l-2.114-4.336c-.165-.326-.404-.317-.541.023l-1.688 4.29zm24.882-9.158c2.673 0 4.077.536 4.586.75 2.04.895 2.636 2.357 2.636 3.82 0 3.102-2.531 4.192-4.709 4.532 2.568.359 3.301 2.213 4.04 4.281.88 2.427 1.687 2.795 3.37 2.795h.601c.174 0 .316.298.316.67v.192a.765.765 0 01-.194.493.746.746 0 01-.466.243s-1.903.186-2.362.186c-3.934 0-4.989-1.751-5.938-4.495-.738-2.143-1.614-3.391-4.214-3.391-.174 0-.317.298-.317.67v4.37c-.024.282.038.566.179.81.261.122.544.187.83.191l.587.047a.72.72 0 01.459.23c.12.132.189.303.192.483v.237a.68.68 0 01-.191.473.656.656 0 01-.464.198H115.1a.656.656 0 01-.467-.196.676.676 0 01-.194-.475v-.237a.74.74 0 01.193-.491.715.715 0 01.468-.231l.619-.047a1.92 1.92 0 00.816-.19c.126-.25.182-.531.161-.811V20.337c.021-.28-.034-.56-.161-.81a1.977 1.977 0 00-.816-.196l-.619-.042a.715.715 0 01-.462-.229.739.739 0 01-.194-.483v-.238a.683.683 0 01.193-.471.661.661 0 01.463-.2h8.786zm-2.632 8.315c.268.032.537.044.807.037 2.815 0 4.319-1.108 4.319-3.26 0-2.679-2.457-3.261-4.072-3.261h-.394a.653.653 0 00-.465.195.674.674 0 00-.195.471v5.818zm30.141-8.315c.174.003.34.074.463.2a.683.683 0 01.193.471v3.051a.676.676 0 01-.192.473.656.656 0 01-.464.198h-1.376a.82.82 0 01-.499-.194.843.843 0 01-.28-.463l-.207-1.076a2.12 2.12 0 00-.247-.764 1.934 1.934 0 00-.78-.107h-4.017a.647.647 0 00-.466.194.67.67 0 00-.194.472v4.565a.675.675 0 00.198.464c.124.122.29.19.462.188h1.986c.27.017.541-.02.798-.107a1.73 1.73 0 00.229-.768l.101-.746a.801.801 0 01.259-.467.78.78 0 01.493-.194h1.032c.174 0 .341.07.465.195a.674.674 0 01.195.47v5.018a.679.679 0 01-.195.473.659.659 0 01-.465.198h-1.032a.778.778 0 01-.494-.196.802.802 0 01-.258-.47l-.101-.741a1.745 1.745 0 00-.229-.769 2.068 2.068 0 00-.798-.107h-1.986a.647.647 0 00-.466.193.671.671 0 00-.194.473v5.194a.68.68 0 00.194.473.651.651 0 00.466.193h4.971a1.55 1.55 0 00.784-.14c.124-.252.208-.522.248-.8l.307-1.58a.851.851 0 01.283-.466.823.823 0 01.506-.19h1.243a.65.65 0 01.466.196.676.676 0 01.194.474v3.624c0 .178-.07.348-.194.474a.652.652 0 01-.466.197h-15.133a.661.661 0 01-.466-.198.682.682 0 01-.194-.473v-.238a.746.746 0 01.196-.484.722.722 0 01.464-.228l.582-.047a2.1 2.1 0 00.835-.19 1.49 1.49 0 00.17-.811V20.337a1.55 1.55 0 00-.156-.81 1.962 1.962 0 00-.817-.196l-.614-.042a.721.721 0 01-.464-.228.745.745 0 01-.196-.484v-.238a.682.682 0 01.194-.473.661.661 0 01.466-.198h14.197zm-82.179-2.664c3.696-.354 5.333 1.104 3.15 1.835a4.523 4.523 0 01-.972.22c-.275.022-.427.302-.239.623.188.322.459 1.053.129 1.356a.488.488 0 01-.752-.145 1.347 1.347 0 01-.101-.791c.064-.424.041-.904-.514-1.058a1.66 1.66 0 00-1.178.107c-.959.555-.514 1.337-.239 1.92.275.582.606 2.328-.825 2.328-1.21 0-1.206-1.509-.871-2.357.27-.661.394-1.197.183-1.555-.21-.359-.857-.415-1.247-.522-.757-.219-1.156-.848.22-1.397-.596 1.593 2.472 1.23 3.425 1.029.404-.084 1.376-.363 1.211-.867-.138-.395-.977-.703-1.38-.726z" fill="#fff"/><path d="M57.293 33.888c.385.801.16 1.69-.665 2.664a9.754 9.754 0 01-2.293 1.864 17.13 17.13 0 01-4.618 1.863c-.234 1.239-.458 2.473-.706 3.726a16.137 16.137 0 01-1.137 3.56 7.757 7.757 0 01-2.293 2.892 1.826 1.826 0 01-.495.293c.413 0 .963-.056 1.646-.111a3.497 3.497 0 001.77-.564c.388-.379.753-.782 1.091-1.206h.046l.032.028a.312.312 0 01-.055.181 3.707 3.707 0 01-1.283 1.439 3.63 3.63 0 01-1.821.587 4.327 4.327 0 01-.876-.032 5.533 5.533 0 00-.858-.033c-.2.03-.397.074-.591.13-.243.066-.49.116-.738.15-.546.046-.872-.042-.982-.28-.064-.135.124-.223.564-.26.18 0 .459-.029.83-.029.372 0 .647 0 .821-.037 1.027-.58 1.83-1.776 2.408-3.587.174-.554.486-1.993.917-4.327.125-.606.303-1.362.532-2.268-.878.194-1.766.34-2.66.437-.757 1.346-1.532 2.679-2.293 3.997 2.004.247 3.21.633 3.59 1.16-.522-.31-1.77-.593-3.741-.848-1.56 2.609-3.314 4.573-5.264 5.893-2.26 1.552-5.095 2.484-8.507 2.795-.748.069-1.5.085-2.251.046.917 1.863 2.682 3.194 5.296 3.992 2.138.66 4.382.894 6.608.69 2.385-.215 4.27-.794 5.659-1.738 1.421-.969 1.884-1.97 1.403-2.995a2.452 2.452 0 00-.917-1.048 1.2 1.2 0 01-.252-.163.045.045 0 01.045 0c.353.033.68.2.918.466.297.233.549.52.742.847.499 1.062-.024 2.089-1.568 3.08-1.544.99-3.516 1.582-5.915 1.774-2.31.253-4.646.04-6.874-.624-2.614-.806-4.402-2.222-5.37-4.23a13.212 13.212 0 01-5.177-1.285 7.661 7.661 0 01-3.715-3.61 4.724 4.724 0 01-.366-3.233 5.187 5.187 0 011.59-2.576c1.774-1.633 4.203-2.591 7.287-2.874a17.093 17.093 0 015.503.354c2.32.553 3.823 1.553 4.508 3 .166.37.276.765.325 1.169.065 0 .184 0 .358-.033l.38-.028a26.044 26.044 0 014.664-.041c.349-.522 1.113-1.78 2.293-3.774a19.5 19.5 0 01-5.746-.4c-2.467-.553-4.055-1.58-4.764-3.08-.48-1.018-.362-1.878.353-2.58a4.42 4.42 0 012.751-1.094 6.332 6.332 0 013.5.577c.473.193.878.527 1.16.96.059.12.068.181 0 .19a3.373 3.373 0 00-2.073-1.327 6.659 6.659 0 00-2.412-.205 3.96 3.96 0 00-2.568 1.034c-.633.657-.725 1.472-.262 2.441.688 1.444 2.215 2.427 4.586 2.963a19.52 19.52 0 005.576.382c2.877-5.19 6.058-7.94 9.543-8.255 1.435-.158 2.38.238 2.81 1.151zM36.598 43.87c-.612-1.31-2.076-2.161-4.393-2.552a19.96 19.96 0 00-5.109-.15 13.815 13.815 0 00-6.846 2.33c-2.22 1.58-2.81 3.462-1.77 5.645a7.346 7.346 0 003.595 3.452 13.386 13.386 0 005.008 1.216 4.31 4.31 0 01.06-3.862c-1.948-.397-3.163-1.097-3.646-2.1a3.266 3.266 0 01-.156-.466c-.06-.243-.06-.368 0-.368a.324.324 0 01.096 0c0 .046.041.177.092.39.028.13.068.256.119.378a2.93 2.93 0 001.605 1.3 8.605 8.605 0 002.063.564c.737-1.243 2.069-2.282 3.995-3.117a20.32 20.32 0 015.571-1.467 2.83 2.83 0 00-.284-1.193zm5.8 1.398a26.404 26.404 0 00-4.732.028c-.16 0-.33.032-.504.065 0 1.314-.764 2.418-2.293 3.312a10.668 10.668 0 01-4.586 1.397c-.953.093-1.914.056-2.857-.111a3.904 3.904 0 00-.151 3.806c.764.052 1.53.04 2.293-.033a15.355 15.355 0 007.896-2.846 19.792 19.792 0 004.935-5.623v.005zm-5.544.102c-1.834.22-3.63.69-5.342 1.398-1.88.782-3.191 1.754-3.934 2.916 2.295.207 4.602-.22 6.677-1.24 1.618-.866 2.48-1.863 2.6-3.078v.004zm20.177-11.454a1.72 1.72 0 00-1.069-.885 3.248 3.248 0 00-1.375-.15 8.217 8.217 0 00-5.503 2.977 26.343 26.343 0 00-3.173 5.008 22.268 22.268 0 002.623-.466c.377-1.47.933-2.886 1.656-4.216.995-1.76 2.137-2.692 3.425-2.794.555-.047.83 0 .816.14l-.05.05-.615-.046a3.068 3.068 0 00-1.392.516 3.132 3.132 0 00-.997 1.114 11.473 11.473 0 00-1.059 2.646 34.897 34.897 0 00-.6 2.33 17.288 17.288 0 004.323-1.925c2.553-1.72 3.556-3.155 3.009-4.304l-.019.005z" fill="#E7A43F" stroke="#E7A43F" stroke-width=".3"/><path d="M54.065 48.445c0 .05-.083.247-.326.577a3.69 3.69 0 01-1.197 1.117 3.626 3.626 0 01-1.555.481c-.77.075-1.283-.163-1.545-.708a.996.996 0 01-.06-.731.546.546 0 01.518-.396c.276 0 .46.046.533.214.073.168 0 .35-.188.559a.507.507 0 00-.175.592.655.655 0 00.724.321.809.809 0 00.48-.188.831.831 0 00.273-.44c.103-.376.142-.767.115-1.156-.028-.344-.01-.69.055-1.03-.665.816-1.087 1.235-1.266 1.249a.059.059 0 01-.041 0c0-.07.188-.317.587-.75a6.57 6.57 0 00.743-.853.789.789 0 01.628-.545c.165 0 .261 0 .28.042.018.042-.152.27-.542.61-.05.047.092.434.427 1.151.119.244.168.517.142.787a.976.976 0 01-.284.653 4.692 4.692 0 001.146-1.016c.29-.373.459-.564.51-.568.05-.005.008 0 .018.028z" fill="#E7A43F" stroke="#E7A43F" stroke-width=".3"/><path d="M58.384 48.04c.023.055-.083.25-.321.577-.317.46-.73.843-1.211 1.121a3.69 3.69 0 01-1.568.486c-.77.07-1.28-.168-1.545-.717a.944.944 0 01-.055-.732.554.554 0 01.194-.28.54.54 0 01.32-.11c.274-.029.458.046.531.213.074.168 0 .354-.188.56-.188.204-.261.405-.17.59.092.187.354.355.725.318a.809.809 0 00.475-.188.83.83 0 00.273-.437c.105-.375.144-.766.114-1.155a4.009 4.009 0 01.055-1.025c-.665.816-1.087 1.235-1.265 1.249h-.042c-.018 0 .193-.317.587-.75a6.19 6.19 0 00.743-.857.825.825 0 01.243-.361.805.805 0 01.39-.184c.16 0 .257 0 .275.042.018.042-.147.275-.541.61-.05.056.092.433.427 1.15.116.247.165.52.142.792a.985.985 0 01-.285.653 4.706 4.706 0 001.147-1.02c.289-.373.458-.56.509-.564.015.003.029.01.041.018z" fill="#E7A43F" stroke="#E7A43F" stroke-width=".3"/><path d="M63.061 48.775a1.944 1.944 0 01-1.312.825.651.651 0 01-.432-.048.666.666 0 01-.31-.31.632.632 0 010-.588 2.33 2.33 0 01-.707.777c-.29.2-.623.33-.971.379a.868.868 0 01-.57-.062.887.887 0 01-.412-.404 1.227 1.227 0 01.037-1.086c-.1.2-.183.298-.23.303a.104.104 0 01-.068 0v-.101a3.24 3.24 0 011.091-1.174 3.277 3.277 0 011.523-.69c.458-.041.733.084.871.378a.639.639 0 01.064.219 1.15 1.15 0 01.33-.498c.152-.134.335-.224.532-.262.165 0 .257 0 .276.033a8.376 8.376 0 01-.46 1.174c-.316.75-.421 1.234-.316 1.458l.083.084a.47.47 0 00.142 0c.266-.028.592-.294.986-.816.2-.284.418-.553.656-.805h.023c.014.111-.252.521-.826 1.215zm-1.7-1.728a.452.452 0 00-.504-.27c-.327.033-.721.405-1.175 1.123-.454.717-.624 1.21-.495 1.476a.308.308 0 00.344.177c.362-.032.793-.386 1.288-1.062.495-.675.683-1.164.541-1.444z" fill="#E7A43F" stroke="#E7A43F" stroke-width=".3"/><path d="M69.243 47.084c.083.168-.247.61-.99 1.333-.437.443-.896.863-1.376 1.257-.81 3.106-2.057 5.235-3.742 6.387-.338.247-.73.407-1.142.465-.61.056-1.004-.111-1.187-.507-.245-.513-.008-1.218.71-2.115a17.138 17.138 0 012.362-2.357l2.036-1.668c.128-.382.289-.931.459-1.63a2.399 2.399 0 01-1.637 1.095.878.878 0 01-.578-.074.897.897 0 01-.408-.42 1.023 1.023 0 01.06-1.044c-.148.192-.23.29-.253.29a.068.068 0 01-.05 0v-.108a4.136 4.136 0 011.147-1.211c.46-.32.979-.543 1.526-.652a.742.742 0 01.542.088.762.762 0 01.338.438h.023c.188-.424.4-.647.629-.666.229-.018.362 0 .394.084.032.084 0 .163-.12.387-.119.223-.435 1.22-1.026 2.985l.632-.577a11.4 11.4 0 001.05-1.076 3.25 3.25 0 01.601-.74v.036zm-3.37 3.103c-1.81 1.593-2.791 2.466-2.944 2.618-1.327 1.379-1.82 2.425-1.477 3.14a.666.666 0 00.301.314.651.651 0 00.428.058c1.23-.126 2.477-2.166 3.7-6.13h-.008zm.917-3.68a.453.453 0 00-.486-.275c-.33.033-.72.405-1.183 1.127-.463.722-.624 1.225-.486 1.505a.316.316 0 00.357.181c.367-.032.794-.39 1.28-1.07s.678-1.17.532-1.468h-.014z" fill="#E7A43F" stroke="#E7A43F" stroke-width=".3"/><path d="M74.65 46.581c.082.163-.248.606-.99 1.323-.433.448-.892.869-1.377 1.258-.81 3.105-2.058 5.236-3.746 6.391a2.396 2.396 0 01-1.137.466c-.61.056-1.005-.112-1.193-.503-.244-.513-.007-1.22.711-2.12a18.21 18.21 0 012.362-2.357c.674-.545 1.353-1.104 2.031-1.663.138-.386.294-.931.459-1.63-.18.29-.42.538-.702.726a2.33 2.33 0 01-.935.364.868.868 0 01-.57-.061.887.887 0 01-.412-.405 1.043 1.043 0 01.055-1.048c-.142.191-.233.28-.26.284a.073.073 0 01-.042 0v-.098a4.11 4.11 0 011.146-1.214c.46-.32.98-.541 1.527-.649a.75.75 0 01.524.07.77.77 0 01.352.4c.197-.428.408-.652.638-.67.229-.019.357 0 .394.084.037.083 0 .163-.12.386-.119.224-.435 1.22-1.027 2.982l.633-.583c.372-.334.723-.692 1.05-1.071.166-.262.366-.499.597-.704l.032.042zm-3.366 3.098c-1.813 1.596-2.796 2.47-2.949 2.623-1.317 1.382-1.808 2.428-1.472 3.14a.67.67 0 00.302.313.655.655 0 00.427.059c1.22-.112 2.45-2.15 3.692-6.116v-.019zM72.2 46a.463.463 0 00-.486-.275c-.326.033-.725.406-1.188 1.128-.463.722-.619 1.22-.49 1.504a.337.337 0 00.366.182c.363-.033.789-.396 1.275-1.076.486-.68.665-1.146.528-1.444L72.2 46z" fill="#E7A43F" stroke="#E7A43F" stroke-width=".3"/><path d="M77.703 46.316c.06.126-.201.517-.78 1.188a2.1 2.1 0 01-1.32.838.66.66 0 01-.432-.037.674.674 0 01-.32-.298c-.112-.4-.068-.83.124-1.197.129-.39.321-.755.569-1.081a9.152 9.152 0 00-.62.685 7.144 7.144 0 01-.458.577.255.255 0 01-.16.084l-.019-.028c0-.27.266-.633.77-1.094a2.487 2.487 0 011.29-.77.584.584 0 01.238 0v.034c-.134.39-.287.775-.459 1.15-.321.745-.436 1.207-.349 1.398a.517.517 0 00.106.088.165.165 0 00.138.042c.215 0 .513-.28.89-.787.375-.508.641-.783.788-.83l.004.038zm-.435-3.359c.078.15.027.317-.142.499a.862.862 0 01-.546.293.702.702 0 01-.22-.293c-.184-.392 0-.615.555-.662.183-.018.302.06.353.163z" fill="#E7A43F" stroke="#E7A43F" stroke-width=".3"/><path d="M82.367 47.047a1.93 1.93 0 01-1.311.825.66.66 0 01-.432-.05.673.673 0 01-.311-.309.632.632 0 010-.587c-.173.312-.414.58-.705.782a2.27 2.27 0 01-.974.383.871.871 0 01-.569-.063.891.891 0 01-.412-.403 1.228 1.228 0 01.037-1.086c-.106.196-.184.299-.234.299a.082.082 0 01-.069 0v-.103c.234-.49.588-.913 1.027-1.225.44-.362.964-.6 1.523-.69.458-.037.734.084.867.373a.798.798 0 01.064.224c.064-.193.177-.366.329-.5.151-.133.335-.223.533-.26.165 0 .257.01.275.029-.12.405-.273.8-.459 1.178-.316.75-.422 1.235-.311 1.458l.078.084a.719.719 0 00.142 0c.266 0 .596-.294.986-.81.196-.288.417-.558.66-.806h.023c.082.13-.179.535-.757 1.257zm-1.701-1.742a.452.452 0 00-.5-.27c-.325.032-.724.405-1.178 1.122-.454.718-.624 1.212-.491 1.477a.314.314 0 00.34.177c.363-.034.794-.388 1.292-1.062.5-.694.68-1.174.537-1.467v.023zm8.446-.023c.055.126-.201.522-.78 1.188-.322.44-.797.74-1.329.838a.669.669 0 01-.748-.33 1.626 1.626 0 01.124-1.203 3.7 3.7 0 01.573-1.085 15.71 15.71 0 00-.623.685c-.096.14-.239.33-.459.582a.274.274 0 01-.156.084l-.036-.033c0-.265.261-.633.766-1.09a2.44 2.44 0 011.288-.736.863.863 0 01.248 0v.038c-.132.39-.285.773-.459 1.146-.316.75-.436 1.21-.348 1.397.032.036.07.067.11.093a.174.174 0 00.133.042c.22 0 .513-.28.894-.787.201-.33.468-.614.784-.834l.018.005zm-.458-3.363c.073.153.027.321-.147.503a.858.858 0 01-.546.289.642.642 0 01-.215-.29c-.188-.395 0-.614.555-.66a.307.307 0 01.218.01c.069.03.125.084.158.152l-.023-.004z" fill="#E7A43F" stroke="#E7A43F" stroke-width=".3"/><path d="M95.285 36.972c.192.41.027 1.015-.495 1.816-.523.802-1.887 2.569-4.09 5.301-.189.358-.31.748-.359 1.15a2.628 2.628 0 00-.073 1.198l.078.075a.281.281 0 00.183.055c.427-.037.918-.526 1.5-1.462l.197-.121v.032c.055.112-.206.508-.784 1.188-.338.445-.83.741-1.376.83-.394.027-.656-.08-.775-.34-.165-.34-.091-.932.202-1.864-.34.508-.55.764-.624.773h-.027c-.028-.093.087-.307.348-.643.166-.214.326-.428.491-.638.096-.26.248-.666.459-1.202 1.724-4.248 3.174-6.422 4.351-6.521a.719.719 0 01.458.052c.143.067.26.18.336.32zm-.459.107a.464.464 0 00-.458-.289c-.468.04-1.165 1.085-2.091 3.135a31.124 31.124 0 00-1.486 3.726 354.168 354.168 0 002.504-3.312c1.238-1.742 1.751-2.822 1.545-3.26h-.014zm6.668-.676c.211.434.046 1.044-.459 1.817-.504.773-1.563 2.115-3.1 4.01-.247.28-.591.709-1.036 1.282a28.157 28.157 0 00-1 2.794 5.187 5.187 0 002.293-1.779c.06-.084.106-.13.133-.13h.07a.268.268 0 01-.051.233 3.64 3.64 0 01-.835.931c-.535.342-1.05.714-1.545 1.114a1.605 1.605 0 000 .633c0 .228.036.466.06.675a13.375 13.375 0 01-.276 3.205c-.32 1.514-.816 2.33-1.486 2.367a.548.548 0 01-.367-.062.561.561 0 01-.247-.283c-.56-1.17.136-4.202 2.087-9.093h-.023a5.483 5.483 0 01-.78.89c-.023-.065.124-.303.426-.717l.56-.7c.266-.66.61-1.518 1.036-2.552a18.835 18.835 0 011.555-2.902c.88-1.397 1.632-2.105 2.247-2.166a.7.7 0 01.738.433zm-5.796 10.43h-.023a54.109 54.109 0 00-.972 3.2c-.465 1.736-.635 2.76-.51 3.07.02.05.055.093.1.12.046.029.1.04.153.034.495-.047.917-.979 1.22-2.795a13.13 13.13 0 00.032-3.63zm5.347-10.337a.418.418 0 00-.181-.22.401.401 0 00-.278-.05c-.458.042-1.15 1.048-2.05 3.023a40.25 40.25 0 00-1.531 3.797l2.44-3.26c1.265-1.777 1.798-2.873 1.6-3.29z" fill="#E7A43F" stroke="#E7A43F" stroke-width=".3"/><path d="M104.456 43.894c.06.13-.192.53-.775 1.197a2.14 2.14 0 01-1.307.82.683.683 0 01-.779-.35c-.165-.34-.042-.847.357-1.532l-.05-.028c-1.105 1.397-1.93 2.133-2.486 2.18-.417.037-.687-.08-.816-.35-.21-.437.028-1.192.706-2.259a8.772 8.772 0 00-.632.68c-.097.14-.239.336-.459.583a.274.274 0 01-.156.083l-.037-.032c.14-.442.399-.834.748-1.132a2.216 2.216 0 011.266-.74.38.38 0 01.252.027c0 .028-.156.466-.459 1.314-.257.708-.348 1.136-.27 1.295a.461.461 0 00.087.065.186.186 0 00.16.037c.298 0 1.174-.931 2.614-2.762a.633.633 0 01.459-.238c.261 0 .403 0 .458.052a5.47 5.47 0 01-.458 1.188c-.317.74-.431 1.187-.353 1.355.018.044.05.082.091.107.039.028.086.04.133.033.427-.042.917-.527 1.468-1.472l.206-.126.032.005z" fill="#E7A43F" stroke="#E7A43F" stroke-width=".3"/><path d="M107.304 39.986c-.488.8-.892 1.649-1.206 2.534.096-.022.194-.036.293-.042l.78-.075c.188 0 .293 0 .325.056.032.056-.156.14-.573.177l-.89.084c-.458 1.202-.587 1.965-.435 2.287a.278.278 0 00.284.186c.239 0 .798-.559 1.665-1.62a.06.06 0 01.055.032c.059.12-.207.517-.78 1.188-.344.462-.853.77-1.417.857a.679.679 0 01-.761-.35c-.165-.34-.096-.931.202-1.816a9.419 9.419 0 01-.711.931.136.136 0 01-.087-.06c.102-.245.243-.472.417-.671.367-.494.569-.778.61-.838l-.385.032-.353.033h-.124a.122.122 0 01-.069-.065c-.032-.056.129-.098.459-.13.176-.007.35-.029.522-.066.684-1.752 1.294-2.65 1.835-2.697a.574.574 0 01.344.032z" fill="#E7A43F" stroke="#E7A43F" stroke-width=".3"/><path d="M113.682 43.055c.065.135-.192.531-.77 1.197a2.178 2.178 0 01-1.316.825.702.702 0 01-.78-.354c-.155-.34-.036-.848.367-1.533l-.059-.028c-1.096 1.398-1.926 2.134-2.481 2.185-.417.033-.688-.084-.816-.354-.211-.438.027-1.193.701-2.26a9.06 9.06 0 00-.623.686c-.092.135-.239.33-.459.577a.236.236 0 01-.156.084l-.037-.028c.134-.445.394-.84.748-1.137a2.212 2.212 0 011.27-.74.359.359 0 01.248.028c0 .023-.156.466-.459 1.313-.261.713-.353 1.137-.28 1.3a.8.8 0 00.092.06.203.203 0 00.156.042c.306-.027 1.179-.948 2.618-2.762a.592.592 0 01.459-.238c.266-.027.413 0 .459.047a5.09 5.09 0 01-.459 1.188c-.312.736-.431 1.188-.348 1.355.018.046.05.085.091.112.04.026.087.036.133.028.427-.042.917-.526 1.477-1.476l.197-.121.027.004z" fill="#E7A43F" stroke="#E7A43F" stroke-width=".3"/><path d="M117.585 42.697c.078.158-.188.554-.794 1.206-.345.435-.834.73-1.375.83a.706.706 0 01-.78-.35c-.156-.336 0-.81.436-1.44.435-.628.669-.931.665-.931-.005 0-.12-.103-.266-.098a2.116 2.116 0 00-.413.037h-.321a1.146 1.146 0 01-.289 0 7.049 7.049 0 01-.527.867 2.872 2.872 0 01-.546.712.077.077 0 01-.049-.009.08.08 0 01-.034-.037s0-.075.083-.163c.142-.177.459-.657.917-1.43a.391.391 0 01-.243-.224.351.351 0 01.078-.466.791.791 0 01.514-.21.45.45 0 01.417.136l-.188.228a.244.244 0 00-.075.132.247.247 0 00.015.152c.037.084.275.112.716.098.44-.014.71.075.802.275.055.107-.064.466-.353.997-.289.53-.385.931-.284 1.155a.219.219 0 00.101.093h.101c.247 0 .582-.284 1.008-.81.427-.527.633-.792.624-.792a.075.075 0 01.035.013c.01.007.019.017.025.029z" fill="#E7A43F" stroke="#E7A43F" stroke-width=".3"/><path d="M122.271 42.291c.069.13-.078.354-.431.666a1.77 1.77 0 01-.816.494.956.956 0 01-.367 0 3.004 3.004 0 01-1.77 1.016c-.614.056-1.022-.121-1.22-.536a1.345 1.345 0 010-1.202c-.192.322-.325.466-.399.494a.045.045 0 01-.032 0v-.103c.277-.47.653-.872 1.101-1.178a3.507 3.507 0 011.609-.69l.156.075c-.05.043-.104.082-.16.117a3.44 3.44 0 00-1 1.192c-.367.633-.458 1.132-.302 1.472a.334.334 0 00.371.214c.5-.046.917-.466 1.27-1.197a1.062 1.062 0 01.404-1.234 1.222 1.222 0 00-.142-.429.797.797 0 00-.074-.088.938.938 0 01-.078-.093c0-.042 0-.07.087-.08a.575.575 0 01.395.187c.121.105.223.231.302.372.188.396.065.932-.366 1.593a.373.373 0 00.123 0 1.153 1.153 0 00.789-.493c.153-.22.346-.409.569-.555 0 0-.019-.028-.019-.014zM68.394 0c1.243 3.955.615 4.444-2.224 8.85-2.164 3.34.555 5.832 2.014 6.606-.918-1.31-1.49-3.303-.945-4.547 1.192-2.697 3.668-3.726 2.857-.726a11.22 11.22 0 00-.395 2.44 35.675 35.675 0 011.582-4.08C72.82 5.198 68.394 0 68.394 0z" fill="#E7A43F" stroke="#E7A43F" stroke-width=".3"/></g><defs><clipPath id="clip0"><path fill="#fff" d="M0 0h153v59H0z"/></clipPath></defs></svg>