<svg width="40" height="40" viewBox="0 0 40 40" fill="none" xmlns="http://www.w3.org/2000/svg"><path d="M0 0h40v40H0V0z" fill="#000"/><path d="M20 8.3c-4.3 0-7.8 3.446-7.8 7.682 0 5.324 7.808 14.418 7.808 14.418S27.8 21.044 27.8 15.982c0-4.236-3.499-7.682-7.8-7.682zm2.354 9.931A3.344 3.344 0 0120 19.19c-.852 0-1.704-.32-2.353-.959a3.246 3.246 0 010-4.635 3.332 3.332 0 012.353-.96c.89 0 1.725.34 2.354.96a3.246 3.246 0 010 4.635z" fill="#E7A43F"/><path d="M0 0v-1h-1v1h1zm40 0h1v-1h-1v1zm0 40v1h1v-1h-1zM0 40h-1v1h1v-1zM0 1h40v-2H0v2zm39-1v40h2V0h-2zm1 39H0v2h40v-2zM1 40V0h-2v40h2z" fill="#000"/></svg>