<svg width="40" height="40" viewBox="0 0 40 40" fill="none" xmlns="http://www.w3.org/2000/svg"><path d="M0 0h40v40H0V0z" fill="#000"/><path d="M19.473 29v-2.826a2.108 2.108 0 01-2.354-.475 2.104 2.104 0 01.01-2.933 2.1 2.1 0 012.344-.468v-1.77h-2.065a.875.875 0 01-.763-.447.884.884 0 01.019-.893c.114-.186.166-.4.152-.62a1.062 1.062 0 00-1.011-.984c-.29-.01-.564.094-.773.294a1.051 1.051 0 00-.166 1.314.874.874 0 01-.747 1.335H11v7.77c0 .388.315.703.703.703h7.77zm1.054-18v2.826a2.108 2.108 0 012.354.475 2.104 2.104 0 01-.01 2.933 2.1 2.1 0 01-2.344.468v1.77h2.065c.316 0 .608.172.763.447a.884.884 0 01-.019.893c-.114.185-.166.4-.152.62.034.531.478.963 1.011.984.29.01.564-.094.773-.295a1.051 1.051 0 00.166-1.314.874.874 0 01.747-1.334H29v-7.77a.703.703 0 00-.703-.703h-7.77z" fill="#fff"/><path d="M26.174 20.527a2.108 2.108 0 01-.475 2.354 2.091 2.091 0 01-1.544.588 2.104 2.104 0 01-1.389-.597 2.1 2.1 0 01-.468-2.345h-1.77v2.065a.875.875 0 01-.447.763.884.884 0 01-.893-.019 1.052 1.052 0 00-.62-.152 1.062 1.062 0 00-.984 1.011c-.01.29.094.564.294.773a1.051 1.051 0 001.314.166.874.874 0 011.335.747V29h7.77a.703.703 0 00.703-.703v-7.77h-2.826zm-12.348-1.054a2.108 2.108 0 01.475-2.354 2.104 2.104 0 012.933.01 2.1 2.1 0 01.468 2.344h1.77v-2.065c0-.316.172-.608.447-.763a.884.884 0 01.893.019c.185.114.4.166.62.152.531-.034.963-.478.984-1.011a1.047 1.047 0 00-.295-.773 1.051 1.051 0 00-1.314-.166.874.874 0 01-1.334-.747V11h-7.77a.703.703 0 00-.703.703v7.77h2.826z" fill="#fff"/><path d="M0 0v-1h-1v1h1zm40 0h1v-1h-1v1zm0 40v1h1v-1h-1zM0 40h-1v1h1v-1zM0 1h40v-2H0v2zm39-1v40h2V0h-2zm1 39H0v2h40v-2zM1 40V0h-2v40h2z" fill="#000"/></svg>