<svg width="40" height="40" viewBox="0 0 40 40" fill="none" xmlns="http://www.w3.org/2000/svg"><path d="M0 0h40v40H0V0z" fill="#000"/><path d="M27.294 13.877h-1.176v-2.223c-.013-.357-.322-.643-.706-.654H14.259C13.01 11 12 11.937 12 13.092v13.816C12 28.063 13.011 29 14.259 29h13.035c.39 0 .706-.293.706-.654V14.53c0-.36-.316-.653-.706-.653zm-7.106 6.951l-1.694-1.286a.78.78 0 00-.753 0l-1.694 1.286v-5.644h4.141v5.644zm4.518-6.951H14.259c-.468 0-.847-.352-.847-.785 0-.433.379-.785.847-.785h10.447v1.57z" fill="#fff"/><path d="M0 0v-1h-1v1h1zm40 0h1v-1h-1v1zm0 40v1h1v-1h-1zM0 40h-1v1h1v-1zM0 1h40v-2H0v2zm39-1v40h2V0h-2zm1 39H0v2h40v-2zM1 40V0h-2v40h2z" fill="#000"/></svg>