<svg width="40" height="40" viewBox="0 0 40 40" fill="none" xmlns="http://www.w3.org/2000/svg"><path d="M0 0h40v40H0V0z" fill="#000"/><g clip-path="url(#clip0)"><path d="M23.627 15.47v-2.418c0-.556-.451-1.007-1.008-1.007h-1.611V-.18h-2.015v12.224h-1.747c-.556 0-1.007.45-1.007 1.007v2.519A9.067 9.067 0 0011 23.73c0 .557.451 1.008 1.008 1.008h3.526a4.567 4.567 0 008.966 0h3.492c.557 0 1.008-.451 1.008-1.008a9.034 9.034 0 00-5.373-8.261zM20 26.35a2.552 2.552 0 01-2.384-1.611h4.768A2.552 2.552 0 0120 26.35z" fill="#fff"/></g><path d="M0 0v-1h-1v1h1zm40 0h1v-1h-1v1zm0 40v1h1v-1h-1zM0 40h-1v1h1v-1zM0 1h40v-2H0v2zm39-1v40h2V0h-2zm1 39H0v2h40v-2zM1 40V0h-2v40h2z" fill="#000"/><defs><clipPath id="clip0"><path fill="#fff" transform="translate(11 10)" d="M0 0h18v19H0z"/></clipPath></defs></svg>