<svg width="40" height="40" viewBox="0 0 40 40" fill="none" xmlns="http://www.w3.org/2000/svg"><path d="M0 0h40v40H0V0z" fill="#000"/><path d="M11 18.579v9.526l6.474-4.51L11 18.579zm9 6.973l-1.64-1.271L11.586 29h16.828l-6.774-4.719L20 25.552zm2.526-1.957L29 28.105V18.58l-6.474 5.016zm-11.043-5.993l.107.083L20 24.2l8.41-6.516.107-.083h.003l-.002-.002h.002-.003l-.107-.084L20 11l-8.41 6.516-.107.083h-.003l.002.001-.002.002h.003z" fill="#fff"/><path d="M0 0v-1h-1v1h1zm40 0h1v-1h-1v1zm0 40v1h1v-1h-1zM0 40h-1v1h1v-1zM0 1h40v-2H0v2zm39-1v40h2V0h-2zm1 39H0v2h40v-2zM1 40V0h-2v40h2z" fill="#000"/></svg>