<svg width="40" height="40" viewBox="0 0 40 40" fill="none" xmlns="http://www.w3.org/2000/svg"><path d="M0 0h40v40H0V0z" fill="#000"/><g clip-path="url(#clip0)"><path fill-rule="evenodd" clip-rule="evenodd" d="M20.987 11.242c.14.162.876 1.028 1.577 2.048.976 1.42 1.45 2.489 1.45 3.271a3.559 3.559 0 01-2.895 3.492v-2.277a.664.664 0 10-1.328 0v2.275a3.559 3.559 0 01-2.883-3.49c0-.782.474-1.852 1.45-3.27a26.131 26.131 0 011.577-2.05.692.692 0 011.052 0zm3.138 9.301a2.155 2.155 0 011.923.338c.557.415.876 1.05.876 1.745v4.321c0 1.132-.92 2.053-2.053 2.053h-8.818A2.055 2.055 0 0114 26.947v-4.321c0-.694.32-1.33.876-1.745a2.156 2.156 0 011.923-.338c.98.294 1.984.468 2.992.521v-1.013a3.52 3.52 0 001.328.002v1.012a12.755 12.755 0 003.006-.522z" fill="#fff"/></g><path d="M0 0v-1h-1v1h1zm40 0h1v-1h-1v1zm0 40v1h1v-1h-1zM0 40h-1v1h1v-1zM0 1h40v-2H0v2zm39-1v40h2V0h-2zm1 39H0v2h40v-2zM1 40V0h-2v40h2z" fill="#000"/><defs><clipPath id="clip0"><path fill="#fff" transform="translate(11 11)" d="M0 0h18v18H0z"/></clipPath></defs></svg>